<?xml version="1.0" standalone="no"?>
<!DOCTYPE svg PUBLIC "-//W3C//DTD SVG 20010904//EN"
 "http://www.w3.org/TR/2001/REC-SVG-20010904/DTD/svg10.dtd">
<svg version="1.0" xmlns="http://www.w3.org/2000/svg"
 width="507.000000pt" height="507.000000pt" viewBox="0 0 507.000000 507.000000"
 preserveAspectRatio="xMidYMid meet">
<metadata>
Created by potrace 1.14, written by Peter Selinger 2001-2017
</metadata>
<g transform="translate(0.000000,507.000000) scale(0.100000,-0.100000)"
fill="#000000" stroke="none">
<path d="M470 4980 c-12 -7 -12 -15 -4 -37 8 -22 7 -39 -2 -67 -42 -120 -35
-381 18 -681 31 -181 36 -203 48 -224 6 -12 9 -21 6 -21 -2 0 2 -28 11 -62 8
-35 16 -70 18 -78 6 -28 43 -175 59 -230 39 -144 115 -381 125 -394 4 -6 18
-39 30 -74 35 -103 89 -238 158 -392 96 -216 120 -263 148 -296 14 -16 38 -49
53 -74 14 -25 39 -63 55 -85 15 -22 35 -51 45 -65 18 -27 74 -100 130 -170 41
-51 223 -233 268 -268 252 -194 414 -278 621 -322 54 -11 107 -23 118 -25 10
-3 37 -7 60 -10 22 -4 65 -13 95 -21 170 -47 244 -65 279 -67 22 -1 37 -6 34
-10 -3 -4 -33 -21 -66 -36 -107 -49 -169 -78 -260 -120 -49 -23 -90 -41 -92
-41 -2 0 -2 8 0 19 4 20 8 119 6 138 0 6 -14 16 -30 21 -37 13 -185 13 -223 0
l-29 -10 7 -142 c4 -77 8 -166 9 -196 2 -30 3 -60 4 -67 0 -6 11 -15 23 -19
20 -6 20 -8 5 -19 -12 -9 -17 -27 -17 -64 l0 -52 -147 6 c-192 7 -371 13 -613
20 -107 3 -239 8 -292 10 -68 3 -100 0 -105 -8 -12 -19 -2 -80 15 -93 14 -10
13 -12 -6 -18 -24 -8 -29 -30 -10 -42 17 -11 101 -12 115 -1 18 13 16 23 -9
47 -13 12 -17 20 -8 20 7 0 18 7 24 16 11 14 19 14 91 -1 84 -17 104 -22 145
-30 14 -2 48 -9 75 -15 52 -10 86 -17 133 -25 15 -3 38 -8 52 -11 62 -15 84
-13 206 21 71 20 136 38 145 40 9 2 48 13 86 24 39 12 78 21 87 21 26 0 18
-19 -12 -26 -15 -4 -31 -9 -37 -13 -11 -6 -215 -68 -251 -76 -12 -3 -53 -15
-90 -26 -38 -12 -76 -23 -84 -24 -8 -2 -15 -4 -15 -5 0 -1 -7 -3 -15 -5 -21
-5 -352 -105 -370 -112 -8 -3 -19 -7 -25 -8 -5 -1 -12 -3 -15 -4 -3 -2 -13 -4
-22 -6 -9 -2 -52 -14 -95 -28 -131 -43 -226 -67 -260 -67 -32 0 -33 -1 -33
-43 0 -24 5 -48 12 -55 9 -9 8 -15 -6 -25 -15 -11 -16 -17 -7 -35 10 -18 20
-21 74 -21 34 1 68 5 74 11 18 15 16 38 -4 54 -15 11 -16 15 -4 23 8 5 12 18
8 30 -7 29 -2 31 112 47 25 3 57 8 71 10 39 7 171 25 220 30 25 2 72 9 105 15
33 6 76 12 95 14 19 2 69 10 110 19 41 8 100 18 130 22 30 3 58 8 61 10 4 2
40 7 80 10 41 3 77 8 81 10 13 8 113 18 158 16 76 -5 94 -5 135 -2 42 3 93 -2
185 -20 30 -6 77 -13 103 -15 48 -5 72 -8 137 -21 19 -3 49 -8 65 -9 45 -5 91
-14 118 -24 14 -6 50 -11 81 -13 31 -2 56 -7 56 -11 0 -5 4 -6 9 -3 5 3 31 1
57 -5 59 -12 142 -26 204 -34 25 -3 59 -8 75 -12 17 -3 40 -7 53 -7 12 -1 22
-4 22 -7 0 -4 18 -9 41 -12 47 -6 48 -7 52 -33 1 -10 6 -25 11 -33 6 -9 3 -17
-8 -23 -21 -12 -21 -35 2 -46 23 -13 140 -13 148 0 3 5 -4 20 -15 32 -19 20
-20 24 -7 29 12 5 16 20 16 56 0 55 -3 57 -95 68 -27 3 -90 18 -140 34 -49 15
-171 54 -270 85 -99 31 -229 71 -290 90 -60 19 -117 37 -125 39 -8 2 -69 20
-135 40 -66 20 -142 44 -170 52 -82 24 -135 45 -135 54 0 5 4 9 8 9 11 0 233
-64 312 -90 89 -29 173 -49 182 -44 4 3 22 7 40 9 18 3 44 7 58 10 14 3 41 8
60 11 19 2 49 7 65 11 40 9 34 8 86 16 61 10 93 16 159 27 43 8 57 7 65 -3 6
-8 17 -16 25 -20 11 -4 10 -7 -7 -12 -26 -8 -41 -44 -23 -55 18 -11 119 -5
132 8 8 8 8 12 1 12 -14 0 -25 43 -13 50 5 3 12 25 15 48 5 38 3 42 -17 43
-40 3 -634 -1 -890 -6 l-246 -4 -6 23 c-3 12 -3 35 0 51 4 21 0 33 -13 43 -15
11 -16 14 -3 22 8 5 19 11 23 12 4 2 9 30 11 63 2 33 4 63 5 66 1 7 85 49 106
54 6 1 26 9 45 17 36 16 71 30 80 33 3 1 19 7 35 14 17 7 152 62 300 123 149
61 290 119 314 130 84 38 124 49 135 38 13 -13 46 -13 46 -1 0 19 32 41 60 41
16 0 31 4 35 9 3 6 27 13 53 17 26 3 55 11 65 16 11 6 23 6 30 0 19 -15 49
-10 54 9 3 10 21 23 42 29 20 6 45 15 56 20 11 4 59 20 107 35 74 23 232 102
248 125 3 4 30 21 61 37 148 81 215 149 258 262 25 65 55 207 46 220 -3 5 -1
12 3 15 17 10 5 246 -19 376 -14 74 -75 284 -117 400 -3 8 -6 17 -7 20 -1 3
-7 18 -13 33 -7 16 -12 32 -12 36 0 4 -14 27 -31 51 -32 45 -40 46 -124 27
-11 -3 -33 -8 -50 -12 -16 -4 -79 -25 -140 -47 -60 -22 -114 -41 -120 -42 -5
-2 -17 -6 -25 -9 -8 -4 -52 -20 -98 -37 -81 -29 -102 -35 -172 -46 -54 -8 -71
-12 -120 -22 -25 -5 -52 -10 -60 -10 -8 0 -46 -7 -85 -16 -178 -41 -347 -39
-561 8 -156 33 -244 85 -380 220 -97 97 -214 245 -219 276 0 3 -11 32 -24 65
-13 33 -24 65 -26 70 -1 6 -5 17 -8 25 -31 75 -73 239 -86 335 -10 70 -7 187
4 206 3 3 7 28 9 55 8 79 60 231 121 354 69 139 95 206 95 242 0 23 -6 29 -40
38 -49 13 -231 5 -330 -15 -14 -3 -45 -8 -70 -11 -25 -3 -52 -7 -60 -9 -14 -4
-63 -11 -127 -19 -15 -2 -44 -7 -63 -10 -57 -11 -168 -20 -370 -32 -133 -7
-143 -7 -270 0 -164 10 -201 14 -260 25 -83 17 -103 28 -133 74 -44 70 -98
142 -111 149 -6 4 -18 3 -26 -2z"/>
</g>
</svg>
